<svg xmlns="http://www.w3.org/2000/svg" fill="none" viewBox="0 521.1381215469613 1952.282 421.62430939226516" style="max-height: 500px" width="1952.282" height="421.62430939226516">
  <g id="SingleElement">
    <path transform="translate(1708 580)" fill-rule="evenodd" fill="#D1F8FF" d="M0 250C0 111.929 111.929 0 250 0C388.071 0 500 111.929 500 250C500 388.071 388.071 500 250 500C111.929 500 0 388.071 0 250Z" id="Oval"/>
    <path transform="translate(1117 680)" fill-rule="evenodd" fill="#D1F8FF" d="M0 250C0 111.929 111.929 0 250 0C388.071 0 500 111.929 500 250C500 388.071 388.071 500 250 500C111.929 500 0 388.071 0 250Z" id="Oval"/>
    <path transform="translate(-297 580)" fill-rule="evenodd" fill="#D1F8FF" d="M0 250C0 111.929 111.929 0 250 0C388.071 0 500 111.929 500 250C500 388.071 388.071 500 250 500C111.929 500 0 388.071 0 250Z" id="Oval"/>
    <path transform="translate(1420 580)" fill-rule="evenodd" fill="#D1F8FF" d="M0 250C0 111.929 111.929 0 250 0C388.071 0 500 111.929 500 250C500 388.071 388.071 500 250 500C111.929 500 0 388.071 0 250Z" id="Oval"/>
    <path transform="translate(743 580)" fill-rule="evenodd" fill="#D1F8FF" d="M0 250C0 111.929 111.929 0 250 0C388.071 0 500 111.929 500 250C500 388.071 388.071 500 250 500C111.929 500 0 388.071 0 250Z" id="Oval"/>
    <path transform="translate(385 680)" fill-rule="evenodd" fill="#D1F8FF" d="M0 250C0 111.929 111.929 0 250 0C388.071 0 500 111.929 500 250C500 388.071 388.071 500 250 500C111.929 500 0 388.071 0 250Z" id="Oval"/>
    <path transform="translate(0 532)" fill-rule="evenodd" fill="#D1F8FF" d="M0 250C0 111.929 111.929 0 250 0C388.071 0 500 111.929 500 250C500 388.071 388.071 500 250 500C111.929 500 0 388.071 0 250Z" id="Oval"/>
    <path transform="translate(135 782)" fill-rule="evenodd" fill="#FFFFFF" d="M0 250C0 111.929 111.929 0 250 0C388.071 0 500 111.929 500 250C500 388.071 388.071 500 250 500C111.929 500 0 388.071 0 250Z" id="Oval"/>
    <path transform="translate(1520 680)" fill-rule="evenodd" fill="#FFFFFF" d="M0 400C0 179.086 179.086 0 400 0C620.914 0 800 179.086 800 400C800 620.914 620.914 800 400 800C179.086 800 0 620.914 0 400Z" id="Oval"/>
    <path transform="translate(1208 830)" fill-rule="evenodd" fill="#FFFFFF" d="M0 250C0 111.929 111.929 0 250 0C388.071 0 500 111.929 500 250C500 388.071 388.071 500 250 500C111.929 500 0 388.071 0 250Z" id="Oval"/>
    <path transform="translate(832 705)" fill-rule="evenodd" fill="#FFFFFF" d="M0 250C0 111.929 111.929 0 250 0C388.071 0 500 111.929 500 250C500 388.071 388.071 500 250 500C111.929 500 0 388.071 0 250Z" id="Oval"/>
    <path transform="translate(516 873)" fill-rule="evenodd" fill="#FFFFFF" d="M0 250C0 111.929 111.929 0 250 0C388.071 0 500 111.929 500 250C500 388.071 388.071 500 250 500C111.929 500 0 388.071 0 250Z" id="Oval"/>
    <path transform="translate(-213 705)" fill-rule="evenodd" fill="#FFFFFF" d="M0 250C0 111.929 111.929 0 250 0C388.071 0 500 111.929 500 250C500 388.071 388.071 500 250 500C111.929 500 0 388.071 0 250Z" id="Oval"/>
  </g>
</svg>