<svg xmlns="http://www.w3.org/2000/svg" xmlns:v="https://svgstorm.com"
viewBox = "0 0 500 500"
width="500"
height="500">
<g fill="None" fill-opacity="0.0" stroke="#000000" stroke-opacity="0.00" stroke-width="0.3"><path d="
M 0.00 500.00 
L 500.00 500.00
L 500.00 0.00
L 0.00 0.00
L 0.00 500.00
M 351.00 64.00 
C 398.65 68.61 436.85 108.40 434.00 158.00 C 431.15 207.60 389.19 242.73 340.00 241.00 C 290.81 239.27 254.70 195.37 257.93 147.93 C 261.15 100.48 300.99 59.16 351.00 64.00
M 254.00 209.00 
C 281.46 234.80 308.80 262.34 337.00 287.00
C 334.39 292.99 327.12 299.80 322.25 304.25 C 317.37 308.70 312.04 320.48 305.26 317.74 C 298.47 315.01 293.84 307.83 288.25 302.75 C 282.66 297.67 276.97 291.88 271.25 286.75 C 265.53 281.62 260.63 273.76 253.00 272.00
C 248.44 277.36 242.47 283.76 237.75 288.75 C 233.04 293.74 225.72 300.24 222.25 305.25 C 218.78 310.26 206.47 316.74 208.36 322.70 C 210.24 328.65 220.16 333.60 224.25 338.75 C 228.33 343.90 236.36 348.77 241.25 353.75 C 246.13 358.73 252.09 365.71 258.00 369.00
C 252.44 381.82 238.54 390.59 230.00 402.00
C 220.59 396.90 214.59 390.66 206.75 382.25 C 198.91 373.84 192.63 371.55 184.75 361.25 C 176.87 350.95 168.34 360.53 161.75 368.75 C 155.16 376.97 147.65 383.05 140.75 390.75 C 133.85 398.45 126.74 405.24 119.75 412.75 C 112.77 420.27 105.56 427.25 99.00 435.00
C 87.88 428.54 83.38 420.81 72.75 412.25 C 62.13 403.69 76.37 394.07 83.92 385.92 C 91.46 377.76 100.58 368.63 108.25 360.25 C 115.91 351.87 124.61 343.81 132.25 335.25 C 139.88 326.68 148.87 318.23 156.75 309.75 C 164.64 301.27 172.50 293.04 180.75 284.75 C 189.01 276.47 196.30 266.91 204.75 258.75 C 213.20 250.60 220.45 241.94 228.75 233.75 C 237.05 225.57 244.44 215.24 254.00 209.00 Z"/>
</g>
<g fill="None" fill-opacity="0.0" stroke="#FFFFFF" stroke-opacity="1.00" stroke-width="0.3"><path d="
M 351.00 64.00 
C 300.99 59.16 261.15 100.48 257.93 147.93 C 254.70 195.37 290.81 239.27 340.00 241.00 C 389.19 242.73 431.15 207.60 434.00 158.00 C 436.85 108.40 398.65 68.61 351.00 64.00
M 351.00 101.00 
C 388.79 105.57 410.89 150.86 388.25 182.25 C 365.60 213.63 318.75 211.38 300.23 176.77 C 281.71 142.16 309.70 96.01 351.00 101.00 Z"/>
</g>
<g fill="None" fill-opacity="0.0" stroke="#000000" stroke-opacity="0.00" stroke-width="0.3"><path d="
M 351.00 101.00 
C 309.70 96.01 281.71 142.16 300.23 176.77 C 318.75 211.38 365.60 213.63 388.25 182.25 C 410.89 150.86 388.79 105.57 351.00 101.00 Z"/>
</g>
<g fill="None" fill-opacity="0.0" stroke="#FFFFFF" stroke-opacity="1.00" stroke-width="0.3"><path d="
M 254.00 209.00 
C 244.44 215.24 237.05 225.57 228.75 233.75 C 220.45 241.94 213.20 250.60 204.75 258.75 C 196.30 266.91 189.01 276.47 180.75 284.75 C 172.50 293.04 164.64 301.27 156.75 309.75 C 148.87 318.23 139.88 326.68 132.25 335.25 C 124.61 343.81 115.91 351.87 108.25 360.25 C 100.58 368.63 91.46 377.76 83.92 385.92 C 76.37 394.07 62.13 403.69 72.75 412.25 C 83.38 420.81 87.88 428.54 99.00 435.00
C 105.56 427.25 112.77 420.27 119.75 412.75 C 126.74 405.24 133.85 398.45 140.75 390.75 C 147.65 383.05 155.16 376.97 161.75 368.75 C 168.34 360.53 176.87 350.95 184.75 361.25 C 192.63 371.55 198.91 373.84 206.75 382.25 C 214.59 390.66 220.59 396.90 230.00 402.00
C 238.54 390.59 252.44 381.82 258.00 369.00
C 252.09 365.71 246.13 358.73 241.25 353.75 C 236.36 348.77 228.33 343.90 224.25 338.75 C 220.16 333.60 210.24 328.65 208.36 322.70 C 206.47 316.74 218.78 310.26 222.25 305.25 C 225.72 300.24 233.04 293.74 237.75 288.75 C 242.47 283.76 248.44 277.36 253.00 272.00
C 260.63 273.76 265.53 281.62 271.25 286.75 C 276.97 291.88 282.66 297.67 288.25 302.75 C 293.84 307.83 298.47 315.01 305.26 317.74 C 312.04 320.48 317.37 308.70 322.25 304.25 C 327.12 299.80 334.39 292.99 337.00 287.00
C 308.80 262.34 281.46 234.80 254.00 209.00 Z"/>
</g>
<g fill="currentColor" fill-opacity="0.00" stroke="None">
<path d="
M 0.00 500.00 
L 500.00 500.00
L 500.00 0.00
L 0.00 0.00
L 0.00 500.00
M 351.00 64.00 
C 398.65 68.61 436.85 108.40 434.00 158.00 C 431.15 207.60 389.19 242.73 340.00 241.00 C 290.81 239.27 254.70 195.37 257.93 147.93 C 261.15 100.48 300.99 59.16 351.00 64.00
M 254.00 209.00 
C 281.46 234.80 308.80 262.34 337.00 287.00
C 334.39 292.99 327.12 299.80 322.25 304.25 C 317.37 308.70 312.04 320.48 305.26 317.74 C 298.47 315.01 293.84 307.83 288.25 302.75 C 282.66 297.67 276.97 291.88 271.25 286.75 C 265.53 281.62 260.63 273.76 253.00 272.00
C 248.44 277.36 242.47 283.76 237.75 288.75 C 233.04 293.74 225.72 300.24 222.25 305.25 C 218.78 310.26 206.47 316.74 208.36 322.70 C 210.24 328.65 220.16 333.60 224.25 338.75 C 228.33 343.90 236.36 348.77 241.25 353.75 C 246.13 358.73 252.09 365.71 258.00 369.00
C 252.44 381.82 238.54 390.59 230.00 402.00
C 220.59 396.90 214.59 390.66 206.75 382.25 C 198.91 373.84 192.63 371.55 184.75 361.25 C 176.87 350.95 168.34 360.53 161.75 368.75 C 155.16 376.97 147.65 383.05 140.75 390.75 C 133.85 398.45 126.74 405.24 119.75 412.75 C 112.77 420.27 105.56 427.25 99.00 435.00
C 87.88 428.54 83.38 420.81 72.75 412.25 C 62.13 403.69 76.37 394.07 83.92 385.92 C 91.46 377.76 100.58 368.63 108.25 360.25 C 115.91 351.87 124.61 343.81 132.25 335.25 C 139.88 326.68 148.87 318.23 156.75 309.75 C 164.64 301.27 172.50 293.04 180.75 284.75 C 189.01 276.47 196.30 266.91 204.75 258.75 C 213.20 250.60 220.45 241.94 228.75 233.75 C 237.05 225.57 244.44 215.24 254.00 209.00 Z"/>
</g>
<g fill="currentColor" fill-opacity="1.00" stroke="None">
<path d="
M 351.00 64.00 
C 300.99 59.16 261.15 100.48 257.93 147.93 C 254.70 195.37 290.81 239.27 340.00 241.00 C 389.19 242.73 431.15 207.60 434.00 158.00 C 436.85 108.40 398.65 68.61 351.00 64.00
M 351.00 101.00 
C 388.79 105.57 410.89 150.86 388.25 182.25 C 365.60 213.63 318.75 211.38 300.23 176.77 C 281.71 142.16 309.70 96.01 351.00 101.00 Z"/>
</g>
<g fill="currentColor" fill-opacity="0.00" stroke="None">
<path d="
M 351.00 101.00 
C 309.70 96.01 281.71 142.16 300.23 176.77 C 318.75 211.38 365.60 213.63 388.25 182.25 C 410.89 150.86 388.79 105.57 351.00 101.00 Z"/>
</g>
<g fill="currentColor" fill-opacity="1.00" stroke="None">
<path d="
M 254.00 209.00 
C 244.44 215.24 237.05 225.57 228.75 233.75 C 220.45 241.94 213.20 250.60 204.75 258.75 C 196.30 266.91 189.01 276.47 180.75 284.75 C 172.50 293.04 164.64 301.27 156.75 309.75 C 148.87 318.23 139.88 326.68 132.25 335.25 C 124.61 343.81 115.91 351.87 108.25 360.25 C 100.58 368.63 91.46 377.76 83.92 385.92 C 76.37 394.07 62.13 403.69 72.75 412.25 C 83.38 420.81 87.88 428.54 99.00 435.00
C 105.56 427.25 112.77 420.27 119.75 412.75 C 126.74 405.24 133.85 398.45 140.75 390.75 C 147.65 383.05 155.16 376.97 161.75 368.75 C 168.34 360.53 176.87 350.95 184.75 361.25 C 192.63 371.55 198.91 373.84 206.75 382.25 C 214.59 390.66 220.59 396.90 230.00 402.00
C 238.54 390.59 252.44 381.82 258.00 369.00
C 252.09 365.71 246.13 358.73 241.25 353.75 C 236.36 348.77 228.33 343.90 224.25 338.75 C 220.16 333.60 210.24 328.65 208.36 322.70 C 206.47 316.74 218.78 310.26 222.25 305.25 C 225.72 300.24 233.04 293.74 237.75 288.75 C 242.47 283.76 248.44 277.36 253.00 272.00
C 260.63 273.76 265.53 281.62 271.25 286.75 C 276.97 291.88 282.66 297.67 288.25 302.75 C 293.84 307.83 298.47 315.01 305.26 317.74 C 312.04 320.48 317.37 308.70 322.25 304.25 C 327.12 299.80 334.39 292.99 337.00 287.00
C 308.80 262.34 281.46 234.80 254.00 209.00 Z"/>
</g>
</svg>